<mxfile host="app.diagrams.net" modified="2024-02-03T14:21:48.727Z" agent="Mozilla/5.0 (Windows NT 10.0; Win64; x64) AppleWebKit/537.36 (KHTML, like Gecko) Chrome/121.0.0.0 Safari/537.36" version="23.1.1" etag="PL2_vtnZ-bujh0LYxpQ4" type="github">
  <diagram name="Page-1" id="hPxy5plz-y_6WcNxY417">
    <mxGraphModel>
      <root>
        <mxCell id="0" />
        <mxCell id="1" parent="0" />
      </root>
    </mxGraphModel>
  </diagram>
</mxfile>
